<?xml version="1.0" standalone="no"?>
<!DOCTYPE svg PUBLIC "-//W3C//DTD SVG 20010904//EN"
 "http://www.w3.org/TR/2001/REC-SVG-20010904/DTD/svg10.dtd">
<svg version="1.0" xmlns="http://www.w3.org/2000/svg"
 width="1000.000000pt" height="1000.000000pt" viewBox="0 0 1000.000000 1000.000000"
 preserveAspectRatio="xMidYMid meet">
<metadata>
Created by potrace 1.11, written by Peter Selinger 2001-2013
</metadata>
<g transform="translate(0.000000,1000.000000) scale(0.100000,-0.100000)"
fill="#000000" stroke="none">
<path d="M4723 9990 c-1097 -65 -2103 -465 -2948 -1171 -138 -116 -396 -369
-528 -519 -899 -1021 -1349 -2394 -1227 -3739 97 -1052 509 -2029 1193 -2824
167 -194 457 -475 667 -643 695 -560 1559 -929 2450 -1048 246 -33 374 -40
670 -40 296 0 424 7 670 40 1024 137 1987 593 2735 1297 472 443 825 921 1096
1482 263 544 419 1112 480 1750 17 167 17 682 1 850 -139 1450 -843 2717
-1987 3575 -669 501 -1438 821 -2272 945 -284 42 -721 62 -1000 45z m291
-2454 c4 -684 4 -1976 0 -2872 -6 -1423 -9 -1633 -22 -1659 -60 -119 -389
-455 -554 -565 l-60 -40 -1424 0 -1424 0 0 1543 0 1542 21 40 c77 145 455 521
592 590 l51 25 1068 0 1068 0 0 990 0 991 21 42 c90 177 544 614 640 617 14 0
16 -117 23 -1244z m1276 -1611 l0 -2855 1090 0 c748 0 1090 -3 1090 -10 0 -91
-442 -554 -611 -640 -37 -20 -65 -20 -1144 -20 l-1105 0 0 2873 0 2872 36 55
c142 212 535 580 621 580 l23 0 0 -2855z"/>
<path d="M2210 4263 l0 -1196 1056 5 c580 3 1057 8 1060 11 5 5 7 2358 2 2362
-2 1 -479 5 -1060 8 l-1058 6 0 -1196z"/>
</g>
</svg>
